<svg width="54" height="33" viewBox="0 0 54 33" fill="none" xmlns="http://www.w3.org/2000/svg">
<path fill-rule="evenodd" clip-rule="evenodd" d="M21.7567 0.343265C17.9248 1.52543 17.7021 1.65607 17.8154 2.65257C17.9158 3.5376 18.0175 3.5873 19.4885 3.47228C20.3495 3.40518 21.3691 3.17088 21.7543 2.9522C22.9356 2.28053 28.7568 2.91244 30.5572 3.90787C33.236 5.3893 34.6174 6.01766 35.1316 5.98926C35.4443 5.97187 36.0135 6.08724 36.3969 6.24557C38.8749 7.26763 41.6437 8.535 41.9557 8.78989C42.1575 8.95497 43.2869 9.89041 44.465 10.8688C46.9194 12.9062 48.1519 13.1359 49.5497 11.8163C52.0567 9.45056 51.8273 5.94915 48.9585 2.77647C47.2707 0.910563 45.6345 0.0773669 43.6919 0.0954721C41.6297 0.114642 37.962 2.07214 36.6441 3.85746C36.2157 4.43754 36.1302 4.43896 35.2466 3.8816C34.729 3.55499 33.9028 2.91598 33.411 2.46122C31.3499 0.556268 24.8789 -0.619507 21.7567 0.343265ZM7.29082 0.496983C4.79223 0.769626 3.10791 3.48541 3.10791 7.24172C3.10791 9.43813 3.20098 9.76296 4.0665 10.5852C5.48171 11.9292 6.48561 12.3762 7.20717 11.9828C7.54459 11.7989 8.83885 10.6696 10.0829 9.47292C11.3273 8.27656 12.8464 6.94671 13.4589 6.51786C15.2673 5.25121 15.8393 3.29158 14.6981 2.27272C13.1215 0.864767 10.2429 0.174638 7.29082 0.496983ZM31.6911 15.3841C30.3955 15.8694 29.9483 16.6635 29.9535 18.4712C29.9563 19.466 30.1853 20.6794 30.4628 21.1675C30.7399 21.6556 31.0602 22.2339 31.1745 22.453C31.2889 22.6716 30.9671 23.4704 30.4596 24.228C29.6969 25.3654 29.5666 25.883 29.7091 27.2026C29.8514 28.5175 30.1344 29.0284 31.3094 30.0909C34.0865 32.6018 35.6088 33.0104 42.1484 32.9998C47.0916 32.9916 46.8458 33.0499 50.7513 30.9628C51.3609 30.6369 52.3415 29.8119 52.9299 29.1292C53.7835 28.1391 54 27.5661 54 26.2987C54 23.9557 52.7925 21.6276 50.9649 20.4472C49.5288 19.5196 49.2025 19.462 45.1277 19.4152C42.4684 19.3847 40.7259 19.5071 40.5878 19.734C40.4651 19.9367 39.4717 20.1021 38.3807 20.1018L36.3969 20.1007L35.386 18.1308C34.7928 16.9745 33.9722 15.9482 33.3992 15.6465C32.8624 15.3639 32.3757 15.1452 32.3186 15.1605C32.2611 15.1757 31.9787 15.2765 31.6911 15.3841ZM15.4116 15.8911C13.9709 16.2269 12.1709 17.8539 12.1709 18.8206C12.1709 19.0616 12.6596 19.6271 13.257 20.0769C15.4771 21.7486 19.491 20.3102 19.491 17.8429C19.491 16.0238 17.9684 15.2954 15.4116 15.8911ZM5.54794 20.3492C5.06865 20.4319 4.04907 20.805 3.2822 21.1788C0.338128 22.6131 -0.335669 23.8833 0.138045 27.1017C0.335339 28.4412 0.677641 29.0798 1.76276 30.131C2.51882 30.8634 3.47113 31.4626 3.87931 31.4626C4.28749 31.4626 4.92469 31.742 5.29488 32.0839C5.85783 32.6033 6.6355 32.7023 10.0282 32.6885C15.2366 32.6668 16.7609 32.3164 18.3581 30.7729C20.528 28.6758 17.9367 25.5553 11.2527 22.2158C8.92634 21.0535 6.88717 20.1241 6.72125 20.1508C6.55533 20.1774 6.02724 20.2668 5.54794 20.3492ZM22.3148 22.0117C21.6023 22.8861 22.4249 24.2915 23.8029 24.5549C26.2826 25.0285 28.1001 23.0053 26.1139 21.9819C24.9546 21.3848 22.8122 21.4014 22.3148 22.0117Z" fill="#39404E"/>
</svg>
